<svg width="18" height="23" viewBox="0 0 18 23" fill="none" xmlns="http://www.w3.org/2000/svg">
<path id="Vector" fill-rule="evenodd" clip-rule="evenodd" d="M8.69157 0C7.4318 0 6.22361 0.500445 5.33282 1.39124C4.44202 2.28204 3.94157 3.49022 3.94157 4.75V5.31H0.781574L0.0115738 16.91C-0.0350324 17.5938 0.0594434 18.2799 0.289133 18.9256C0.518823 19.5714 0.878821 20.163 1.34677 20.6638C1.81472 21.1646 2.38063 21.5638 3.00936 21.8366C3.63808 22.1095 4.31619 22.2502 5.00157 22.25H12.3816C13.0661 22.2501 13.7433 22.1097 14.3713 21.8374C14.9993 21.5652 15.5647 21.1669 16.0325 20.6672C16.5003 20.1675 16.8605 19.5771 17.0909 18.9325C17.3212 18.288 17.4168 17.603 17.3716 16.92L16.6016 5.32H13.4416V4.75C13.4416 4.12622 13.3187 3.50855 13.08 2.93225C12.8413 2.35596 12.4914 1.83232 12.0503 1.39124C11.6093 0.950165 11.0856 0.600282 10.5093 0.361572C9.93302 0.122862 9.31535 0 8.69157 0ZM12.4416 4.75V5.31H4.94157V4.75C4.94157 3.75544 5.33666 2.80161 6.03992 2.09835C6.74318 1.39509 7.69701 1 8.69157 1C9.68614 1 10.64 1.39509 11.3432 2.09835C12.0465 2.80161 12.4416 3.75544 12.4416 4.75ZM12.4416 6.31H4.94157V6.87C4.94157 7.86456 5.33666 8.81839 6.03992 9.52165C6.74318 10.2249 7.69701 10.62 8.69157 10.62C9.68614 10.62 10.64 10.2249 11.3432 9.52165C12.0465 8.81839 12.4416 7.86456 12.4416 6.87V6.31ZM3.94157 6.87V6.31H1.72157L1.00157 16.98C0.964529 17.5275 1.04055 18.0769 1.22492 18.5938C1.40928 19.1107 1.69804 19.5841 2.07324 19.9846C2.44843 20.3852 2.90202 20.7042 3.40581 20.9219C3.90959 21.1396 4.45277 21.2513 5.00157 21.25H12.3816C12.9295 21.2499 13.4716 21.1372 13.9742 20.9189C14.4768 20.7006 14.9292 20.3813 15.3033 19.981C15.6774 19.5806 15.9653 19.1076 16.1491 18.5914C16.3328 18.0752 16.4086 17.5267 16.3716 16.98L15.6616 6.31H13.4416V6.87C13.4416 8.12978 12.9411 9.33796 12.0503 10.2288C11.1595 11.1196 9.95135 11.62 8.69157 11.62C7.4318 11.62 6.22361 11.1196 5.33282 10.2288C4.44202 9.33796 3.94157 8.12978 3.94157 6.87Z" fill="#9BA4B5"/>
</svg>
