<svg width="14" height="18" viewBox="0 0 14 18" fill="none" xmlns="http://www.w3.org/2000/svg">
<g id="phone-black-18dp 2" clip-path="url(#clip0_21_49)">
<path id="Vector" d="M11.4538 10.3988L10.0241 10.2414C9.68075 10.2034 9.34303 10.3174 9.101 10.5508L8.06534 11.5495C6.47244 10.7679 5.1666 9.51413 4.35608 7.97269L5.39738 6.96858C5.63941 6.73519 5.75761 6.40953 5.71821 6.07845L5.55498 4.71069C5.48743 4.1625 5.009 3.75 4.43488 3.75H3.46113C2.8251 3.75 2.29601 4.2602 2.33541 4.87352C2.63373 9.50871 6.47807 13.2103 11.2793 13.498C11.9153 13.536 12.4444 13.0258 12.4444 12.4125V11.4735C12.45 10.9253 12.0223 10.464 11.4538 10.3988Z" fill="#9BA4B5"/>
</g>
<defs>
<clipPath id="clip0_21_49">
<rect width="14" height="18" fill="white"/>
</clipPath>
</defs>
</svg>
