<svg aria-hidden="true" style="position: absolute; width: 0; height: 0; overflow: hidden;" version="1.1" xmlns="http://www.w3.org/2000/svg" xmlns:xlink="http://www.w3.org/1999/xlink">
<defs>
<symbol id="icon-person-black-18dp-1" viewBox="0 0 32 32">
<path fill="#9ba4b5" style="fill: var(--color1, #9ba4b5)" d="M16 16c2.947 0 5.333-2.387 5.333-5.333s-2.387-5.333-5.333-5.333c-2.947 0-5.333 2.387-5.333 5.333s2.387 5.333 5.333 5.333zM16 18.667c-3.56 0-10.667 1.787-10.667 5.333v1.333c0 0.733 0.6 1.333 1.333 1.333h18.667c0.733 0 1.333-0.6 1.333-1.333v-1.333c0-3.547-7.107-5.333-10.667-5.333z"></path>
</symbol>
<symbol id="icon-phone-black-18dp-2" viewBox="0 0 25 32">
<path fill="#9ba4b5" style="fill: var(--color1, #9ba4b5)" d="M20.362 18.487l-2.542-0.28c-0.61-0.068-1.211 0.135-1.641 0.55l-1.841 1.775c-2.832-1.389-5.153-3.618-6.594-6.359l1.851-1.785c0.43-0.415 0.64-0.994 0.57-1.582l-0.29-2.432c-0.12-0.975-0.971-1.708-1.991-1.708h-1.731c-1.131 0-2.071 0.907-2.001 1.997 0.53 8.24 7.365 14.821 15.9 15.332 1.131 0.068 2.071-0.839 2.071-1.93v-1.669c0.010-0.975-0.75-1.795-1.761-1.911z"></path>
</symbol>
<symbol id="icon-bag" viewBox="0 0 25 32">
<path fill="#9ba4b5" style="fill: var(--color1, #9ba4b5)" d="M12.093 0c-1.753 0-3.434 0.696-4.673 1.936s-1.936 2.92-1.936 4.673v0.779h-4.397l-1.071 16.139c-0.065 0.951 0.067 1.906 0.386 2.804s0.82 1.722 1.472 2.418 1.438 1.252 2.313 1.632c0.875 0.38 1.818 0.575 2.772 0.575h10.268c0.952 0 1.895-0.195 2.768-0.574s1.66-0.933 2.311-1.628 1.152-1.517 1.473-2.413c0.32-0.897 0.453-1.85 0.391-2.8l-1.071-16.139h-4.397v-0.793c0-0.868-0.171-1.727-0.503-2.529s-0.819-1.53-1.433-2.144c-0.614-0.614-1.342-1.1-2.144-1.433s-1.661-0.503-2.529-0.503zM17.31 6.609v0.779h-10.435v-0.779c0-1.384 0.55-2.711 1.528-3.689s2.306-1.528 3.689-1.528c1.384 0 2.711 0.55 3.689 1.528s1.528 2.306 1.528 3.689zM17.31 8.779h-10.435v0.779c0 1.384 0.55 2.711 1.528 3.689s2.306 1.528 3.689 1.528c1.384 0 2.711-0.55 3.689-1.528s1.528-2.306 1.528-3.689v-0.779zM5.484 9.558v-0.779h-3.089l-1.002 14.845c-0.052 0.762 0.054 1.526 0.311 2.245s0.658 1.378 1.18 1.935c0.522 0.557 1.153 1.001 1.854 1.304s1.457 0.458 2.22 0.456h10.268c0.762-0 1.517-0.157 2.216-0.461s1.329-0.748 1.849-1.305c0.52-0.557 0.921-1.215 1.177-1.933s0.361-1.481 0.31-2.242l-0.988-14.845h-3.089v0.779c0 1.753-0.696 3.434-1.936 4.673s-2.92 1.936-4.673 1.936-3.434-0.696-4.673-1.936c-1.239-1.239-1.936-2.92-1.936-4.673z"></path>
</symbol>
</defs>
</svg>
